<?xml version="1.0" encoding="UTF-8"?>
<svg xmlns="http://www.w3.org/2000/svg" xmlns:xlink="http://www.w3.org/1999/xlink" width="2000" height="2000" viewBox="0 0 2000 2000">
<defs>
<clipPath id="clip-0">
<path clip-rule="nonzero" d="M 197 197 L 1803 197 L 1803 1803 L 197 1803 Z M 197 197 "/>
</clipPath>
<clipPath id="clip-1">
<path clip-rule="nonzero" d="M 1801.941406 1394.988281 C 1801.941406 1403.78125 1801.671875 1422.820312 1801.148438 1437.539062 C 1799.859375 1473.539062 1797.011719 1519.988281 1792.691406 1541.171875 C 1786.199219 1572.96875 1776.410156 1603 1763.640625 1627.988281 C 1748.539062 1657.550781 1729.269531 1684.019531 1706.371094 1706.878906 C 1683.53125 1729.691406 1657.070312 1748.878906 1627.558594 1763.921875 C 1602.441406 1776.730469 1572.21875 1786.519531 1540.230469 1792.980469 C 1519.28125 1797.210938 1473.171875 1800.011719 1437.398438 1801.28125 C 1422.671875 1801.808594 1403.621094 1802.070312 1394.871094 1802.070312 L 605.007812 1801.949219 C 596.222656 1801.949219 577.179688 1801.679688 562.464844 1801.148438 C 526.464844 1799.859375 480.007812 1797.011719 458.839844 1792.691406 C 427.03125 1786.210938 397.003906 1776.410156 372.015625 1763.648438 C 342.453125 1748.539062 315.976562 1729.269531 293.121094 1706.378906 C 270.3125 1683.53125 251.121094 1657.070312 236.078125 1627.558594 C 223.273438 1602.441406 213.476562 1572.21875 207.015625 1540.230469 C 202.789062 1519.28125 199.988281 1473.171875 198.714844 1437.398438 C 198.191406 1422.671875 197.929688 1403.621094 197.929688 1394.871094 L 198.054688 605.011719 C 198.054688 596.230469 198.320312 577.179688 198.851562 562.460938 C 200.140625 526.460938 202.996094 480.011719 207.308594 458.839844 C 213.796875 427.03125 223.585938 397.011719 236.355469 372.019531 C 251.460938 342.449219 270.730469 315.96875 293.625 293.121094 C 316.46875 270.308594 342.925781 251.121094 372.441406 236.078125 C 397.5625 223.28125 427.773438 213.480469 459.765625 207.019531 C 480.722656 202.789062 526.828125 199.988281 562.601562 198.71875 C 577.332031 198.191406 596.382812 197.929688 605.128906 197.929688 L 1394.988281 198.058594 C 1403.78125 198.058594 1422.820312 198.320312 1437.53125 198.851562 C 1473.539062 200.140625 1519.988281 202.988281 1541.171875 207.308594 C 1572.96875 213.800781 1603 223.589844 1627.988281 236.359375 C 1657.539062 251.460938 1684.019531 270.730469 1706.878906 293.628906 C 1729.691406 316.46875 1748.878906 342.921875 1763.921875 372.441406 C 1776.730469 397.558594 1786.519531 427.769531 1792.980469 459.769531 C 1797.210938 480.71875 1800.011719 526.828125 1801.28125 562.601562 C 1801.808594 577.328125 1802.070312 596.378906 1802.070312 605.128906 Z M 1801.941406 1394.988281 "/>
</clipPath>
<clipPath id="clip-2">
<path clip-rule="nonzero" d="M 1801.941406 1394.988281 C 1801.941406 1403.78125 1801.671875 1422.820312 1801.148438 1437.539062 C 1799.859375 1473.539062 1797.011719 1519.988281 1792.691406 1541.171875 C 1786.199219 1572.96875 1776.410156 1603 1763.640625 1627.988281 C 1748.539062 1657.550781 1729.269531 1684.019531 1706.371094 1706.878906 C 1683.53125 1729.691406 1657.070312 1748.878906 1627.558594 1763.921875 C 1602.441406 1776.730469 1572.21875 1786.519531 1540.230469 1792.980469 C 1519.28125 1797.210938 1473.171875 1800.011719 1437.398438 1801.28125 C 1422.671875 1801.808594 1403.621094 1802.070312 1394.871094 1802.070312 L 605.007812 1801.949219 C 596.222656 1801.949219 577.179688 1801.679688 562.464844 1801.148438 C 526.464844 1799.859375 480.007812 1797.011719 458.839844 1792.691406 C 427.03125 1786.210938 397.003906 1776.410156 372.015625 1763.648438 C 342.453125 1748.539062 315.976562 1729.269531 293.121094 1706.378906 C 270.3125 1683.53125 251.121094 1657.070312 236.078125 1627.558594 C 223.273438 1602.441406 213.476562 1572.21875 207.015625 1540.230469 C 202.789062 1519.28125 199.988281 1473.171875 198.714844 1437.398438 C 198.191406 1422.671875 197.929688 1403.621094 197.929688 1394.871094 L 198.054688 605.011719 C 198.054688 596.230469 198.320312 577.179688 198.851562 562.460938 C 200.140625 526.460938 202.996094 480.011719 207.308594 458.839844 C 213.796875 427.03125 223.585938 397.011719 236.355469 372.019531 C 251.460938 342.449219 270.730469 315.96875 293.625 293.121094 C 316.46875 270.308594 342.925781 251.121094 372.441406 236.078125 C 397.5625 223.28125 427.773438 213.480469 459.765625 207.019531 C 480.722656 202.789062 526.828125 199.988281 562.601562 198.71875 C 577.332031 198.191406 596.382812 197.929688 605.128906 197.929688 L 1394.988281 198.058594 C 1403.78125 198.058594 1422.820312 198.320312 1437.53125 198.851562 C 1473.539062 200.140625 1519.988281 202.988281 1541.171875 207.308594 C 1572.96875 213.800781 1603 223.589844 1627.988281 236.359375 C 1657.539062 251.460938 1684.019531 270.730469 1706.878906 293.628906 C 1729.691406 316.46875 1748.878906 342.921875 1763.921875 372.441406 C 1776.730469 397.558594 1786.519531 427.769531 1792.980469 459.769531 C 1797.210938 480.71875 1800.011719 526.828125 1801.28125 562.601562 C 1801.808594 577.328125 1802.070312 596.378906 1802.070312 605.128906 L 1801.941406 1394.988281 "/>
</clipPath>
<linearGradient id="linear-pattern-0" gradientUnits="userSpaceOnUse" x1="-0.000000000000000305" y1="0" x2="1" y2="0" gradientTransform="matrix(0, 1604.14, 1604.14, 0, 1000, 197.93)">
<stop offset="0" stop-color="rgb(45.098877%, 79.537964%, 38.067627%)" stop-opacity="1"/>
<stop offset="0.015625" stop-color="rgb(45.098877%, 79.530334%, 37.915039%)" stop-opacity="1"/>
<stop offset="0.03125" stop-color="rgb(44.909668%, 79.458618%, 37.649536%)" stop-opacity="1"/>
<stop offset="0.046875" stop-color="rgb(44.526672%, 79.327393%, 37.426758%)" stop-opacity="1"/>
<stop offset="0.0625" stop-color="rgb(44.140625%, 79.196167%, 37.207031%)" stop-opacity="1"/>
<stop offset="0.078125" stop-color="rgb(43.934631%, 79.118347%, 36.947632%)" stop-opacity="1"/>
<stop offset="0.09375" stop-color="rgb(43.745422%, 79.046631%, 36.685181%)" stop-opacity="1"/>
<stop offset="0.109375" stop-color="rgb(43.374634%, 78.919983%, 36.463928%)" stop-opacity="1"/>
<stop offset="0.125" stop-color="rgb(42.988586%, 78.787231%, 36.247253%)" stop-opacity="1"/>
<stop offset="0.140625" stop-color="rgb(42.602539%, 78.656006%, 36.032104%)" stop-opacity="1"/>
<stop offset="0.15625" stop-color="rgb(42.216492%, 78.52478%, 35.816956%)" stop-opacity="1"/>
<stop offset="0.171875" stop-color="rgb(41.830444%, 78.393555%, 35.604858%)" stop-opacity="1"/>
<stop offset="0.1875" stop-color="rgb(41.603088%, 78.309631%, 35.354614%)" stop-opacity="1"/>
<stop offset="0.195313" stop-color="rgb(41.4505%, 78.2547%, 35.211182%)" stop-opacity="1"/>
<stop offset="0.203125" stop-color="rgb(41.137695%, 78.158569%, 35.255432%)" stop-opacity="1"/>
<stop offset="0.210938" stop-color="rgb(40.808105%, 78.059387%, 35.331726%)" stop-opacity="1"/>
<stop offset="0.21875" stop-color="rgb(40.576172%, 77.989197%, 35.385132%)" stop-opacity="1"/>
<stop offset="0.234375" stop-color="rgb(40.435791%, 77.940369%, 35.302734%)" stop-opacity="1"/>
<stop offset="0.25" stop-color="rgb(40.246582%, 77.870178%, 35.079956%)" stop-opacity="1"/>
<stop offset="0.28125" stop-color="rgb(39.909363%, 77.754211%, 34.863281%)" stop-opacity="1"/>
<stop offset="0.296875" stop-color="rgb(39.526367%, 77.624512%, 34.657288%)" stop-opacity="1"/>
<stop offset="0.3125" stop-color="rgb(39.14032%, 77.497864%, 34.555054%)" stop-opacity="1"/>
<stop offset="0.328125" stop-color="rgb(38.754272%, 77.374268%, 34.501648%)" stop-opacity="1"/>
<stop offset="0.34375" stop-color="rgb(38.496399%, 77.284241%, 34.313965%)" stop-opacity="1"/>
<stop offset="0.359375" stop-color="rgb(38.30719%, 77.212524%, 34.062195%)" stop-opacity="1"/>
<stop offset="0.375" stop-color="rgb(38.110352%, 77.139282%, 33.813477%)" stop-opacity="1"/>
<stop offset="0.390625" stop-color="rgb(37.921143%, 77.067566%, 33.563232%)" stop-opacity="1"/>
<stop offset="0.40625" stop-color="rgb(37.724304%, 76.994324%, 33.31604%)" stop-opacity="1"/>
<stop offset="0.421875" stop-color="rgb(37.535095%, 76.924133%, 33.067322%)" stop-opacity="1"/>
<stop offset="0.4375" stop-color="rgb(37.228394%, 76.817322%, 32.849121%)" stop-opacity="1"/>
<stop offset="0.453125" stop-color="rgb(36.842346%, 76.686096%, 32.650757%)" stop-opacity="1"/>
<stop offset="0.46875" stop-color="rgb(36.456299%, 76.556396%, 32.453918%)" stop-opacity="1"/>
<stop offset="0.476562" stop-color="rgb(36.166382%, 76.457214%, 32.302856%)" stop-opacity="1"/>
<stop offset="0.484375" stop-color="rgb(35.974121%, 76.38855%, 32.128906%)" stop-opacity="1"/>
<stop offset="0.492188" stop-color="rgb(35.78186%, 76.316833%, 31.886292%)" stop-opacity="1"/>
<stop offset="0.5" stop-color="rgb(35.687256%, 76.278687%, 31.692505%)" stop-opacity="1"/>
<stop offset="0.507813" stop-color="rgb(35.687256%, 76.271057%, 31.544495%)" stop-opacity="1"/>
<stop offset="0.515625" stop-color="rgb(35.592651%, 76.23291%, 31.352234%)" stop-opacity="1"/>
<stop offset="0.523438" stop-color="rgb(35.400391%, 76.161194%, 31.111145%)" stop-opacity="1"/>
<stop offset="0.53125" stop-color="rgb(35.20813%, 76.092529%, 30.937195%)" stop-opacity="1"/>
<stop offset="0.539063" stop-color="rgb(35.014343%, 76.026917%, 30.838013%)" stop-opacity="1"/>
<stop offset="0.546875" stop-color="rgb(34.822083%, 75.959778%, 30.67627%)" stop-opacity="1"/>
<stop offset="0.554688" stop-color="rgb(34.628296%, 75.886536%, 30.44281%)" stop-opacity="1"/>
<stop offset="0.5625" stop-color="rgb(34.521484%, 75.843811%, 30.244446%)" stop-opacity="1"/>
<stop offset="0.578125" stop-color="rgb(34.428406%, 75.805664%, 30.04303%)" stop-opacity="1"/>
<stop offset="0.585938" stop-color="rgb(34.248352%, 75.741577%, 29.872131%)" stop-opacity="1"/>
<stop offset="0.59375" stop-color="rgb(34.135437%, 75.697327%, 29.698181%)" stop-opacity="1"/>
<stop offset="0.601563" stop-color="rgb(34.118652%, 75.679016%, 29.425049%)" stop-opacity="1"/>
<stop offset="0.609375" stop-color="rgb(34.042358%, 75.645447%, 29.212952%)" stop-opacity="1"/>
<stop offset="0.625" stop-color="rgb(33.772278%, 75.553894%, 29.052734%)" stop-opacity="1"/>
<stop offset="0.632813" stop-color="rgb(33.482361%, 75.456238%, 28.915405%)" stop-opacity="1"/>
<stop offset="0.640625" stop-color="rgb(33.2901%, 75.389099%, 28.770447%)" stop-opacity="1"/>
<stop offset="0.648438" stop-color="rgb(33.096313%, 75.317383%, 28.555298%)" stop-opacity="1"/>
<stop offset="0.65625" stop-color="rgb(32.971191%, 75.268555%, 28.35083%)" stop-opacity="1"/>
<stop offset="0.671875" stop-color="rgb(32.878113%, 75.230408%, 28.138733%)" stop-opacity="1"/>
<stop offset="0.679688" stop-color="rgb(32.71637%, 75.170898%, 27.966309%)" stop-opacity="1"/>
<stop offset="0.6875" stop-color="rgb(32.585144%, 75.123596%, 27.813721%)" stop-opacity="1"/>
<stop offset="0.695313" stop-color="rgb(32.550049%, 75.100708%, 27.561951%)" stop-opacity="1"/>
<stop offset="0.703125" stop-color="rgb(32.492065%, 75.071716%, 27.334595%)" stop-opacity="1"/>
<stop offset="0.71875" stop-color="rgb(32.296753%, 75.001526%, 27.145386%)" stop-opacity="1"/>
<stop offset="0.726563" stop-color="rgb(32.157898%, 74.949646%, 26.968384%)" stop-opacity="1"/>
<stop offset="0.734375" stop-color="rgb(32.106018%, 74.925232%, 26.800537%)" stop-opacity="1"/>
<stop offset="0.742188" stop-color="rgb(31.958008%, 74.868774%, 26.589966%)" stop-opacity="1"/>
<stop offset="0.75" stop-color="rgb(31.764221%, 74.798584%, 26.394653%)" stop-opacity="1"/>
<stop offset="0.757813" stop-color="rgb(31.57196%, 74.732971%, 26.271057%)" stop-opacity="1"/>
<stop offset="0.765625" stop-color="rgb(31.378174%, 74.667358%, 26.150513%)" stop-opacity="1"/>
<stop offset="0.773438" stop-color="rgb(31.185913%, 74.597168%, 25.956726%)" stop-opacity="1"/>
<stop offset="0.78125" stop-color="rgb(31.034851%, 74.54071%, 25.747681%)" stop-opacity="1"/>
<stop offset="0.789063" stop-color="rgb(30.981445%, 74.516296%, 25.579834%)" stop-opacity="1"/>
<stop offset="0.796875" stop-color="rgb(30.941772%, 74.49646%, 25.419617%)" stop-opacity="1"/>
<stop offset="0.804688" stop-color="rgb(30.805969%, 74.44458%, 25.216675%)" stop-opacity="1"/>
<stop offset="0.8125" stop-color="rgb(30.575562%, 74.362183%, 24.998474%)" stop-opacity="1"/>
<stop offset="0.820313" stop-color="rgb(30.249023%, 74.250793%, 24.810791%)" stop-opacity="1"/>
<stop offset="0.828125" stop-color="rgb(29.930115%, 74.143982%, 24.647522%)" stop-opacity="1"/>
<stop offset="0.835938" stop-color="rgb(29.804993%, 74.09668%, 24.49646%)" stop-opacity="1"/>
<stop offset="0.84375" stop-color="rgb(29.774475%, 74.079895%, 24.34082%)" stop-opacity="1"/>
<stop offset="0.851563" stop-color="rgb(29.647827%, 74.031067%, 24.143982%)" stop-opacity="1"/>
<stop offset="0.859375" stop-color="rgb(29.481506%, 73.970032%, 23.930359%)" stop-opacity="1"/>
<stop offset="0.875" stop-color="rgb(29.388428%, 73.928833%, 23.696899%)" stop-opacity="1"/>
<stop offset="0.882813" stop-color="rgb(29.267883%, 73.883057%, 23.519897%)" stop-opacity="1"/>
<stop offset="0.890625" stop-color="rgb(29.095459%, 73.825073%, 23.416138%)" stop-opacity="1"/>
<stop offset="0.898438" stop-color="rgb(29.020691%, 73.791504%, 23.21167%)" stop-opacity="1"/>
<stop offset="0.90625" stop-color="rgb(29.00238%, 73.773193%, 22.93396%)" stop-opacity="1"/>
<stop offset="0.914063" stop-color="rgb(28.887939%, 73.725891%, 22.686768%)" stop-opacity="1"/>
<stop offset="0.921875" stop-color="rgb(28.694153%, 73.655701%, 22.486877%)" stop-opacity="1"/>
<stop offset="0.9375" stop-color="rgb(28.405762%, 73.564148%, 22.457886%)" stop-opacity="1"/>
<stop offset="0.953125" stop-color="rgb(28.019714%, 73.449707%, 22.579956%)" stop-opacity="1"/>
<stop offset="0.96875" stop-color="rgb(27.639771%, 73.335266%, 22.698975%)" stop-opacity="1"/>
<stop offset="0.984375" stop-color="rgb(27.449036%, 73.278809%, 22.758484%)" stop-opacity="1"/>
<stop offset="1" stop-color="rgb(27.253723%, 73.220825%, 22.819519%)" stop-opacity="1"/>
</linearGradient>
</defs>
<rect x="-200" y="-200" width="2400" height="2400" fill="rgb(100%, 100%, 100%)" fill-opacity="1"/>
<g clip-path="url(#clip-0)">
<g clip-path="url(#clip-1)">
<g clip-path="url(#clip-2)">
<path fill-rule="nonzero" fill="url(#linear-pattern-0)" d="M 197.929688 197.929688 L 1802.070312 197.929688 L 1802.070312 1802.070312 L 197.929688 1802.070312 Z M 197.929688 197.929688 "/>
</g>
</g>
</g>
<path fill-rule="nonzero" fill="rgb(100%, 100%, 100%)" fill-opacity="1" d="M 1280.339844 1104.21875 C 1265.960938 1097.03125 1195.289062 1062.269531 1182.121094 1057.46875 C 1168.949219 1052.679688 1159.371094 1050.28125 1149.78125 1064.671875 C 1140.199219 1079.050781 1112.660156 1111.410156 1104.269531 1121.011719 C 1095.890625 1130.589844 1087.5 1131.789062 1073.128906 1124.601562 C 1058.75 1117.410156 1012.441406 1102.238281 957.542969 1053.289062 C 914.816406 1015.191406 885.972656 968.128906 877.585938 953.75 C 869.203125 939.359375 876.695312 931.589844 883.890625 924.421875 C 890.355469 917.988281 898.261719 907.640625 905.449219 899.25 C 912.636719 890.859375 915.03125 884.859375 919.824219 875.28125 C 924.613281 865.691406 922.21875 857.289062 918.621094 850.109375 C 915.03125 842.910156 886.285156 772.191406 874.308594 743.421875 C 862.640625 715.398438 850.792969 719.191406 841.96875 718.75 C 833.59375 718.328125 824.003906 718.238281 814.421875 718.238281 C 804.84375 718.238281 789.265625 721.839844 776.09375 736.230469 C 762.921875 750.609375 725.789062 785.378906 725.789062 856.101562 C 725.789062 926.820312 777.292969 995.140625 784.476562 1004.730469 C 791.664062 1014.320312 885.828125 1159.460938 1030.011719 1221.691406 C 1064.300781 1236.5 1091.078125 1245.339844 1111.949219 1251.960938 C 1146.378906 1262.898438 1177.710938 1261.351562 1202.480469 1257.660156 C 1230.101562 1253.53125 1287.511719 1222.890625 1299.5 1189.328125 C 1311.46875 1155.761719 1311.46875 1127 1307.878906 1121.011719 C 1304.289062 1115.011719 1294.710938 1111.421875 1280.339844 1104.21875 Z M 1018.078125 1462.191406 L 1017.890625 1462.191406 C 932.09375 1462.148438 847.949219 1439.109375 774.542969 1395.558594 L 757.082031 1385.210938 L 576.128906 1432.660156 L 624.429688 1256.289062 L 613.054688 1238.210938 C 565.199219 1162.109375 539.921875 1074.148438 539.960938 983.839844 C 540.0625 720.308594 754.539062 505.910156 1018.269531 505.910156 C 1145.96875 505.960938 1266.011719 555.75 1356.28125 646.089844 C 1446.550781 736.429688 1496.238281 856.511719 1496.179688 984.21875 C 1496.078125 1247.769531 1281.601562 1462.191406 1018.078125 1462.191406 Z M 1424.988281 577.441406 C 1316.378906 468.738281 1171.960938 408.851562 1018.070312 408.789062 C 701.015625 408.789062 442.96875 666.738281 442.839844 983.800781 C 442.796875 1085.160156 469.285156 1184.089844 519.625 1271.289062 L 438.015625 1569.28125 L 742.957031 1489.308594 C 826.976562 1535.121094 921.570312 1559.269531 1017.839844 1559.308594 L 1018.078125 1559.308594 C 1018.101562 1559.308594 1018.058594 1559.308594 1018.078125 1559.308594 C 1335.109375 1559.308594 1593.179688 1301.328125 1593.308594 984.261719 C 1593.371094 830.609375 1533.589844 686.128906 1424.988281 577.441406 "/>
</svg>
