<svg xmlns="http://www.w3.org/2000/svg" viewBox="0 0 175.216 175.552">
  <defs>
    <linearGradient id="wa-gradient" x1="85.915" y1="174.55" x2="85.915" y2="0.551" gradientUnits="userSpaceOnUse">
      <stop offset="0" stop-color="#20b038"/>
      <stop offset="1" stop-color="#60d66a"/>
    </linearGradient>
  </defs>
  <path d="M87.184 25.227c-33.733 0-61.166 27.423-61.178 61.13a60.98 60.98 0 0 0 8.144 30.68L25 174.547l58.902-15.438a61.05 61.05 0 0 0 29.181 7.435h.025c33.733 0 61.167-27.423 61.178-61.13.011-16.328-6.334-31.666-17.866-43.199A60.956 60.956 0 0 0 87.184 25.227z" fill="url(#wa-gradient)"/>
  <path d="M87.184 32.227c-29.882 0-54.178 24.285-54.188 54.13a53.98 53.98 0 0 0 7.573 27.567l1.176 1.869-5.001 18.26 18.747-4.916 1.804 1.069a54.085 54.085 0 0 0 27.594 7.54h.023c29.882 0 54.178-24.285 54.188-54.13a53.89 53.89 0 0 0-15.826-38.26 53.913 53.913 0 0 0-36.09-13.129z" fill="#fff"/>
  <path d="M68.772 55.603c-1.378-3.061-2.828-3.123-4.137-3.176l-3.524-.043c-1.226 0-3.218.46-4.902 2.3s-6.435 6.287-6.435 15.332 6.588 17.785 7.506 19.013 12.718 20.381 31.405 27.75c15.529 6.124 18.689 4.906 22.061 4.6s10.877-4.448 12.408-8.74 1.532-7.971 1.073-8.74-1.685-1.226-3.525-2.146-10.877-5.367-12.562-5.981-2.91-.919-4.137.921-4.746 5.979-5.819 7.206-2.144 1.381-3.984.462-7.76-2.861-14.784-9.124c-5.465-4.873-9.154-10.891-10.228-12.73s-.114-2.835.808-3.751c.825-.824 1.838-2.147 2.759-3.22s1.224-1.84 1.836-3.065.307-2.301-.153-3.22-4.032-10.011-5.674-13.679z" fill="#25d366"/>
</svg>
